Coordinates
version=1
nRows=11
nColumns=36
inDegrees=yes

Units are S.I. units (second, meters, Newtons, ...)
If the header above contains a line with 'inDegrees', this indicates whether rotational values are in degrees (yes) or radians (no).

endheader
time	pelvis_tilt	pelvis_list	pelvis_rotation	pelvis_tx	pelvis_ty	pelvis_tz	hip_flexion_r	hip_adduction_r	hip_rotation_r	knee_angle_r	knee_angle_r_beta	ankle_angle_r	subtalar_angle_r	mtp_angle_r	hip_flexion_l	hip_adduction_l	hip_rotation_l	knee_angle_l	knee_angle_l_beta	ankle_angle_l	subtalar_angle_l	mtp_angle_l	lumbar_extension	lumbar_bending	lumbar_rotation	arm_flex_r	arm_add_r	arm_rot_r	elbow_flex_r	pro_sup_r	arm_flex_l	arm_add_l	arm_rot_l	elbow_flex_l	pro_sup_l
      1.73333330	     -6.86094092	      8.04333614	     -0.77084974	      0.58924885	      0.96766999	     -0.01342790	      7.44851362	     -0.77441215	      8.88050086	      9.49544190	      0.16572673	     12.37897948	      2.12646089	     -7.49846606	     27.55664513	      3.91554706	      3.80523259	     14.14592526	      0.24689297	      0.28162389	     -6.44947450	     -7.49846606	     -3.45220401	     -8.22202042	     -1.50957218	     45.75739260	     11.33210088	     74.45147519	    105.84438631	     99.05341642	     25.35470519	     17.12075314	     11.26900664	    111.88465123	     65.03517025
      1.75000000	     -6.83561112	      8.19220317	     -0.75059727	      0.59229284	      0.96482489	     -0.01578777	      7.57025718	     -1.01823026	      8.23616800	     10.07477134	      0.17583793	     12.64472796	      2.47518358	     -7.49849343	     27.49600084	      4.11116713	      3.78698329	     14.49405423	      0.25296897	      0.71188946	     -6.82233952	     -7.49849343	     -3.34231903	     -8.24405384	     -1.48474514	     45.70313302	     11.14327841	     74.59477093	    105.99083746	     99.26128295	     25.17860798	     16.96791624	     11.90813122	    112.29014560	     65.16395396
      1.76666670	     -6.79843686	      8.32149494	     -0.85639879	      0.58891585	      0.96582489	     -0.01320862	      7.81244879	     -1.14461089	      7.85551180	     10.55316324	      0.18418745	     12.40185935	      2.53315662	     -7.49849765	     27.46604667	      4.17308675	      3.71785529	     14.52287996	      0.25347207	      0.69056733	     -6.89597753	     -7.49849765	     -3.47467994	     -8.24556535	     -1.42088132	     45.77107602	     11.08346978	     74.61156490	    105.94369994	     99.30574365	     25.28863801	     16.66272604	     11.98113223	    112.21500491	     65.18884275
      1.78333330	     -6.94253000	      8.56064584	     -0.97556166	      0.58918041	      0.96758721	     -0.01327449	      8.35894840	     -1.43676701	      6.84486507	     11.15267736	      0.19465094	     12.92299100	      3.83481383	     -7.49866337	     27.66019432	      4.35757190	      3.90247903	     14.43368188	      0.25191527	      0.37755109	     -7.29705783	     -7.49866337	     -3.36738630	     -8.49481323	     -1.06541618	     45.91078766	     10.85170957	     74.61981375	    105.80019449	     98.99646773	     26.00475104	     16.03714983	     13.17262472	    111.73757077	     65.35451688
      1.80000000	     -7.07660395	      8.77089925	     -1.12149222	      0.58888043	      0.96595691	     -0.01258733	      8.86756541	     -1.62458022	      6.40661809	     11.70368197	      0.20426778	     13.04471265	      4.50426291	     -7.49904754	     27.90971571	      4.49379574	      3.87790260	     14.50433356	      0.25314838	      0.22321807	     -7.28459619	     -7.49904754	     -3.34044505	     -8.79742775	     -0.75951312	     46.06635104	     10.74785715	     73.95685088	    105.90206607	    101.81655679	     26.79306137	     15.53681527	     13.59664946	    111.29653170	     66.64953623
      1.81666670	     -7.26584156	      9.04856765	     -1.14398898	      0.58924838	      0.96657153	     -0.01257714	      9.33096911	     -1.92466739	      6.08114026	     12.10007968	      0.21118623	     13.22580476	      4.92288342	     -7.49913683	     28.43069302	      4.73828883	      3.55656191	     14.88476995	      0.25978824	     -0.10617613	     -7.12102358	     -7.49913683	     -3.25820381	     -9.07669141	     -0.63669534	     46.24110650	     10.58780487	     73.67777608	    106.13629609	    100.03026847	     27.51095454	     15.08505248	     13.91536050	    111.38884365	     66.33448727
      1.83333330	     -7.32988723	      9.21606477	     -1.22871366	      0.58913691	      0.96633591	     -0.01215017	      9.82534027	     -2.05728416	      5.73437168	     12.71372378	      0.22189634	     13.61747038	      5.70147276	     -7.49919527	     28.64246691	      4.81424163	      3.46784141	     15.09686429	      0.26348999	     -0.12841210	     -6.94258438	     -7.49919527	     -3.34994085	     -9.18981838	     -0.65401959	     46.75270039	     10.71952974	     74.04917527	    106.74935532	     99.57816342	     27.37338221	     15.25992289	     20.34069936	    114.65160639	     66.66459711
      1.85000000	     -7.37806531	      9.39633311	     -1.19404630	      0.58939800	      0.96694990	     -0.01215038	     10.27739726	     -2.24572242	      5.33813060	     13.31606706	      0.23240921	     13.81436482	      6.01829670	     -7.49939312	     28.85417458	      4.98196169	      3.26441248	     15.37464117	      0.26833811	     -0.08283070	     -6.59996522	     -7.49939312	     -3.45205845	     -9.43014580	     -0.55140329	     47.44425561	     10.90596985	     74.66417597	    107.28868114	    101.32253728	     27.02657992	     15.90702742	     33.30963387	    117.89505692	     73.94179292
      1.86666670	     -7.39129255	      9.53870064	     -1.24321156	      0.58934502	      0.96657950	     -0.01179052	     10.63948237	     -2.33132718	      5.07073307	     13.75532169	      0.24007565	     14.03270050	      6.41234807	     -7.49944623	     28.95580655	      4.98640866	      3.24981482	     15.33872988	      0.26771134	     -0.18395746	     -6.43065690	     -7.49944623	     -3.63344205	     -9.56172151	     -0.29610772	     48.45418880	     11.15307913	     74.75084027	    107.33358225	    100.19832482	     28.52822415	     16.02707587	     45.67203189	    119.15989888	     74.86331182
      1.88333330	     -7.64668264	      9.56658581	     -1.08023665	      0.58596581	      0.96521081	     -0.01414562	     11.27034643	     -2.41984493	      4.73449491	     14.21875640	      0.24816411	     14.29607069	      6.63805970	     -7.49948391	     29.56559033	      5.05711817	      3.29040870	     15.51335560	      0.27075913	     -0.32925267	     -6.48712663	     -7.49948391	     -3.74791036	     -9.45035915	     -0.02247561	     49.65062792	     10.99129362	     73.78714143	    107.12418363	     99.21946006	     31.16047671	     16.62610820	     55.71220243	    119.34676402	     75.58979587
      1.90000000	     -7.72945683	      9.59684879	     -0.71993768	      0.58917031	      0.96403209	     -0.01647643	     11.57090837	     -2.59095766	      4.46693052	     14.74181796	      0.25729326	     14.63354097	      6.52821786	     -7.49950892	     29.83510567	      5.32797540	      3.52826786	     15.41260477	      0.26900070	     -0.42222257	     -6.22818388	     -7.49950892	     -3.79546183	     -9.36475870	      0.22540147	     49.86202699	     10.36532185	     72.07033854	    107.61755648	     98.93419589	     33.46882161	     17.20614804	     62.80671357	    118.93643710	     77.19399072
